<?xml version="1.0" encoding="utf-8" standalone="no"?>
<!DOCTYPE svg PUBLIC "-//W3C//DTD SVG 1.1//EN"
  "http://www.w3.org/Graphics/SVG/1.1/DTD/svg11.dtd">
<svg xmlns:xlink="http://www.w3.org/1999/xlink" width="460.8pt" height="345.6pt" viewBox="0 0 460.8 345.6" xmlns="http://www.w3.org/2000/svg" version="1.1">
 <metadata>
  <rdf:RDF xmlns:dc="http://purl.org/dc/elements/1.1/" xmlns:cc="http://creativecommons.org/ns#" xmlns:rdf="http://www.w3.org/1999/02/22-rdf-syntax-ns#">
   <cc:Work>
    <dc:type rdf:resource="http://purl.org/dc/dcmitype/StillImage"/>
    <dc:date>2024-10-31T19:49:31.175926</dc:date>
    <dc:format>image/svg+xml</dc:format>
    <dc:creator>
     <cc:Agent>
      <dc:title>Matplotlib v3.9.2, https://matplotlib.org/</dc:title>
     </cc:Agent>
    </dc:creator>
   </cc:Work>
  </rdf:RDF>
 </metadata>
 <defs>
  <style type="text/css">*{stroke-linejoin: round; stroke-linecap: butt}</style>
 </defs>
 <g id="figure_1">
  <g id="patch_1">
   <path d="M 0 345.6 
L 460.8 345.6 
L 460.8 0 
L 0 0 
z
" style="fill: #ffffff"/>
  </g>
  <g id="axes_1">
   <g id="patch_2">
    <path d="M 57.44 303.64 
L 450 303.64 
L 450 10.8 
L 57.44 10.8 
z
" style="fill: #ffffff"/>
   </g>
   <g id="matplotlib.axis_1">
    <g id="xtick_1">
     <g id="line2d_1">
      <defs>
       <path id="m3d0b9d0c48" d="M 0 0 
L 0 3.5 
" style="stroke: #000000; stroke-width: 0.8"/>
      </defs>
      <g>
       <use xlink:href="#m3d0b9d0c48" x="71.642078" y="303.64" style="stroke: #000000; stroke-width: 0.8"/>
      </g>
     </g>
     <g id="text_1">
      <!-- 0 -->
      <g transform="translate(68.460828 318.238437) scale(0.1 -0.1)">
       <defs>
        <path id="DejaVuSans-30" d="M 2034 4250 
Q 1547 4250 1301 3770 
Q 1056 3291 1056 2328 
Q 1056 1369 1301 889 
Q 1547 409 2034 409 
Q 2525 409 2770 889 
Q 3016 1369 3016 2328 
Q 3016 3291 2770 3770 
Q 2525 4250 2034 4250 
z
M 2034 4750 
Q 2819 4750 3233 4129 
Q 3647 3509 3647 2328 
Q 3647 1150 3233 529 
Q 2819 -91 2034 -91 
Q 1250 -91 836 529 
Q 422 1150 422 2328 
Q 422 3509 836 4129 
Q 1250 4750 2034 4750 
z
" transform="scale(0.015625)"/>
       </defs>
       <use xlink:href="#DejaVuSans-30"/>
      </g>
     </g>
    </g>
    <g id="xtick_2">
     <g id="line2d_2">
      <g>
       <use xlink:href="#m3d0b9d0c48" x="144.473247" y="303.64" style="stroke: #000000; stroke-width: 0.8"/>
      </g>
     </g>
     <g id="text_2">
      <!-- 100 -->
      <g transform="translate(134.929497 318.238437) scale(0.1 -0.1)">
       <defs>
        <path id="DejaVuSans-31" d="M 794 531 
L 1825 531 
L 1825 4091 
L 703 3866 
L 703 4441 
L 1819 4666 
L 2450 4666 
L 2450 531 
L 3481 531 
L 3481 0 
L 794 0 
L 794 531 
z
" transform="scale(0.015625)"/>
       </defs>
       <use xlink:href="#DejaVuSans-31"/>
       <use xlink:href="#DejaVuSans-30" x="63.623047"/>
       <use xlink:href="#DejaVuSans-30" x="127.246094"/>
      </g>
     </g>
    </g>
    <g id="xtick_3">
     <g id="line2d_3">
      <g>
       <use xlink:href="#m3d0b9d0c48" x="217.304416" y="303.64" style="stroke: #000000; stroke-width: 0.8"/>
      </g>
     </g>
     <g id="text_3">
      <!-- 200 -->
      <g transform="translate(207.760666 318.238437) scale(0.1 -0.1)">
       <defs>
        <path id="DejaVuSans-32" d="M 1228 531 
L 3431 531 
L 3431 0 
L 469 0 
L 469 531 
Q 828 903 1448 1529 
Q 2069 2156 2228 2338 
Q 2531 2678 2651 2914 
Q 2772 3150 2772 3378 
Q 2772 3750 2511 3984 
Q 2250 4219 1831 4219 
Q 1534 4219 1204 4116 
Q 875 4013 500 3803 
L 500 4441 
Q 881 4594 1212 4672 
Q 1544 4750 1819 4750 
Q 2544 4750 2975 4387 
Q 3406 4025 3406 3419 
Q 3406 3131 3298 2873 
Q 3191 2616 2906 2266 
Q 2828 2175 2409 1742 
Q 1991 1309 1228 531 
z
" transform="scale(0.015625)"/>
       </defs>
       <use xlink:href="#DejaVuSans-32"/>
       <use xlink:href="#DejaVuSans-30" x="63.623047"/>
       <use xlink:href="#DejaVuSans-30" x="127.246094"/>
      </g>
     </g>
    </g>
    <g id="xtick_4">
     <g id="line2d_4">
      <g>
       <use xlink:href="#m3d0b9d0c48" x="290.135584" y="303.64" style="stroke: #000000; stroke-width: 0.8"/>
      </g>
     </g>
     <g id="text_4">
      <!-- 300 -->
      <g transform="translate(280.591834 318.238437) scale(0.1 -0.1)">
       <defs>
        <path id="DejaVuSans-33" d="M 2597 2516 
Q 3050 2419 3304 2112 
Q 3559 1806 3559 1356 
Q 3559 666 3084 287 
Q 2609 -91 1734 -91 
Q 1441 -91 1130 -33 
Q 819 25 488 141 
L 488 750 
Q 750 597 1062 519 
Q 1375 441 1716 441 
Q 2309 441 2620 675 
Q 2931 909 2931 1356 
Q 2931 1769 2642 2001 
Q 2353 2234 1838 2234 
L 1294 2234 
L 1294 2753 
L 1863 2753 
Q 2328 2753 2575 2939 
Q 2822 3125 2822 3475 
Q 2822 3834 2567 4026 
Q 2313 4219 1838 4219 
Q 1578 4219 1281 4162 
Q 984 4106 628 3988 
L 628 4550 
Q 988 4650 1302 4700 
Q 1616 4750 1894 4750 
Q 2613 4750 3031 4423 
Q 3450 4097 3450 3541 
Q 3450 3153 3228 2886 
Q 3006 2619 2597 2516 
z
" transform="scale(0.015625)"/>
       </defs>
       <use xlink:href="#DejaVuSans-33"/>
       <use xlink:href="#DejaVuSans-30" x="63.623047"/>
       <use xlink:href="#DejaVuSans-30" x="127.246094"/>
      </g>
     </g>
    </g>
    <g id="xtick_5">
     <g id="line2d_5">
      <g>
       <use xlink:href="#m3d0b9d0c48" x="362.966753" y="303.64" style="stroke: #000000; stroke-width: 0.8"/>
      </g>
     </g>
     <g id="text_5">
      <!-- 400 -->
      <g transform="translate(353.423003 318.238437) scale(0.1 -0.1)">
       <defs>
        <path id="DejaVuSans-34" d="M 2419 4116 
L 825 1625 
L 2419 1625 
L 2419 4116 
z
M 2253 4666 
L 3047 4666 
L 3047 1625 
L 3713 1625 
L 3713 1100 
L 3047 1100 
L 3047 0 
L 2419 0 
L 2419 1100 
L 313 1100 
L 313 1709 
L 2253 4666 
z
" transform="scale(0.015625)"/>
       </defs>
       <use xlink:href="#DejaVuSans-34"/>
       <use xlink:href="#DejaVuSans-30" x="63.623047"/>
       <use xlink:href="#DejaVuSans-30" x="127.246094"/>
      </g>
     </g>
    </g>
    <g id="xtick_6">
     <g id="line2d_6">
      <g>
       <use xlink:href="#m3d0b9d0c48" x="435.797922" y="303.64" style="stroke: #000000; stroke-width: 0.8"/>
      </g>
     </g>
     <g id="text_6">
      <!-- 500 -->
      <g transform="translate(426.254172 318.238437) scale(0.1 -0.1)">
       <defs>
        <path id="DejaVuSans-35" d="M 691 4666 
L 3169 4666 
L 3169 4134 
L 1269 4134 
L 1269 2991 
Q 1406 3038 1543 3061 
Q 1681 3084 1819 3084 
Q 2600 3084 3056 2656 
Q 3513 2228 3513 1497 
Q 3513 744 3044 326 
Q 2575 -91 1722 -91 
Q 1428 -91 1123 -41 
Q 819 9 494 109 
L 494 744 
Q 775 591 1075 516 
Q 1375 441 1709 441 
Q 2250 441 2565 725 
Q 2881 1009 2881 1497 
Q 2881 1984 2565 2268 
Q 2250 2553 1709 2553 
Q 1456 2553 1204 2497 
Q 953 2441 691 2322 
L 691 4666 
z
" transform="scale(0.015625)"/>
       </defs>
       <use xlink:href="#DejaVuSans-35"/>
       <use xlink:href="#DejaVuSans-30" x="63.623047"/>
       <use xlink:href="#DejaVuSans-30" x="127.246094"/>
      </g>
     </g>
    </g>
    <g id="text_7">
     <!-- Размер стороны матрицы -->
     <g transform="translate(186.087969 331.916562) scale(0.1 -0.1)">
      <defs>
       <path id="DejaVuSans-420" d="M 1259 4147 
L 1259 2394 
L 2053 2394 
Q 2494 2394 2734 2622 
Q 2975 2850 2975 3272 
Q 2975 3691 2734 3919 
Q 2494 4147 2053 4147 
L 1259 4147 
z
M 628 4666 
L 2053 4666 
Q 2838 4666 3239 4311 
Q 3641 3956 3641 3272 
Q 3641 2581 3239 2228 
Q 2838 1875 2053 1875 
L 1259 1875 
L 1259 0 
L 628 0 
L 628 4666 
z
" transform="scale(0.015625)"/>
       <path id="DejaVuSans-430" d="M 2194 1759 
Q 1497 1759 1228 1600 
Q 959 1441 959 1056 
Q 959 750 1161 570 
Q 1363 391 1709 391 
Q 2188 391 2477 730 
Q 2766 1069 2766 1631 
L 2766 1759 
L 2194 1759 
z
M 3341 1997 
L 3341 0 
L 2766 0 
L 2766 531 
Q 2569 213 2275 61 
Q 1981 -91 1556 -91 
Q 1019 -91 701 211 
Q 384 513 384 1019 
Q 384 1609 779 1909 
Q 1175 2209 1959 2209 
L 2766 2209 
L 2766 2266 
Q 2766 2663 2505 2880 
Q 2244 3097 1772 3097 
Q 1472 3097 1187 3025 
Q 903 2953 641 2809 
L 641 3341 
Q 956 3463 1253 3523 
Q 1550 3584 1831 3584 
Q 2591 3584 2966 3190 
Q 3341 2797 3341 1997 
z
" transform="scale(0.015625)"/>
       <path id="DejaVuSans-437" d="M 2206 1888 
Q 2594 1813 2809 1584 
Q 3025 1356 3025 1019 
Q 3025 478 2622 193 
Q 2219 -91 1475 -91 
Q 1225 -91 961 -47 
Q 697 -3 416 84 
L 416 619 
Q 638 503 903 445 
Q 1169 388 1459 388 
Q 1931 388 2195 563 
Q 2459 738 2459 1019 
Q 2459 1294 2225 1461 
Q 1991 1628 1563 1628 
L 1100 1628 
L 1100 2103 
L 1584 2103 
Q 1947 2103 2158 2242 
Q 2369 2381 2369 2600 
Q 2369 2800 2151 2944 
Q 1934 3088 1563 3088 
Q 1341 3088 1089 3047 
Q 838 3006 534 2916 
L 534 3438 
Q 841 3513 1106 3550 
Q 1372 3588 1609 3588 
Q 2222 3588 2576 3342 
Q 2931 3097 2931 2656 
Q 2931 2366 2743 2164 
Q 2556 1963 2206 1888 
z
" transform="scale(0.015625)"/>
       <path id="DejaVuSans-43c" d="M 581 3500 
L 1422 3500 
L 2416 1156 
L 3413 3500 
L 4247 3500 
L 4247 0 
L 3669 0 
L 3669 2950 
L 2703 672 
L 2128 672 
L 1159 2950 
L 1159 0 
L 581 0 
L 581 3500 
z
" transform="scale(0.015625)"/>
       <path id="DejaVuSans-435" d="M 3597 1894 
L 3597 1613 
L 953 1613 
Q 991 1019 1311 708 
Q 1631 397 2203 397 
Q 2534 397 2845 478 
Q 3156 559 3463 722 
L 3463 178 
Q 3153 47 2828 -22 
Q 2503 -91 2169 -91 
Q 1331 -91 842 396 
Q 353 884 353 1716 
Q 353 2575 817 3079 
Q 1281 3584 2069 3584 
Q 2775 3584 3186 3129 
Q 3597 2675 3597 1894 
z
M 3022 2063 
Q 3016 2534 2758 2815 
Q 2500 3097 2075 3097 
Q 1594 3097 1305 2825 
Q 1016 2553 972 2059 
L 3022 2063 
z
" transform="scale(0.015625)"/>
       <path id="DejaVuSans-440" d="M 1159 525 
L 1159 -1331 
L 581 -1331 
L 581 3500 
L 1159 3500 
L 1159 2969 
Q 1341 3281 1617 3432 
Q 1894 3584 2278 3584 
Q 2916 3584 3314 3078 
Q 3713 2572 3713 1747 
Q 3713 922 3314 415 
Q 2916 -91 2278 -91 
Q 1894 -91 1617 61 
Q 1341 213 1159 525 
z
M 3116 1747 
Q 3116 2381 2855 2742 
Q 2594 3103 2138 3103 
Q 1681 3103 1420 2742 
Q 1159 2381 1159 1747 
Q 1159 1113 1420 752 
Q 1681 391 2138 391 
Q 2594 391 2855 752 
Q 3116 1113 3116 1747 
z
" transform="scale(0.015625)"/>
       <path id="DejaVuSans-20" transform="scale(0.015625)"/>
       <path id="DejaVuSans-441" d="M 3122 3366 
L 3122 2828 
Q 2878 2963 2633 3030 
Q 2388 3097 2138 3097 
Q 1578 3097 1268 2742 
Q 959 2388 959 1747 
Q 959 1106 1268 751 
Q 1578 397 2138 397 
Q 2388 397 2633 464 
Q 2878 531 3122 666 
L 3122 134 
Q 2881 22 2623 -34 
Q 2366 -91 2075 -91 
Q 1284 -91 818 406 
Q 353 903 353 1747 
Q 353 2603 823 3093 
Q 1294 3584 2113 3584 
Q 2378 3584 2631 3529 
Q 2884 3475 3122 3366 
z
" transform="scale(0.015625)"/>
       <path id="DejaVuSans-442" d="M 188 3500 
L 3541 3500 
L 3541 3041 
L 2147 3041 
L 2147 0 
L 1581 0 
L 1581 3041 
L 188 3041 
L 188 3500 
z
" transform="scale(0.015625)"/>
       <path id="DejaVuSans-43e" d="M 1959 3097 
Q 1497 3097 1228 2736 
Q 959 2375 959 1747 
Q 959 1119 1226 758 
Q 1494 397 1959 397 
Q 2419 397 2687 759 
Q 2956 1122 2956 1747 
Q 2956 2369 2687 2733 
Q 2419 3097 1959 3097 
z
M 1959 3584 
Q 2709 3584 3137 3096 
Q 3566 2609 3566 1747 
Q 3566 888 3137 398 
Q 2709 -91 1959 -91 
Q 1206 -91 779 398 
Q 353 888 353 1747 
Q 353 2609 779 3096 
Q 1206 3584 1959 3584 
z
" transform="scale(0.015625)"/>
       <path id="DejaVuSans-43d" d="M 581 3500 
L 1159 3500 
L 1159 2072 
L 3025 2072 
L 3025 3500 
L 3603 3500 
L 3603 0 
L 3025 0 
L 3025 1613 
L 1159 1613 
L 1159 0 
L 581 0 
L 581 3500 
z
" transform="scale(0.015625)"/>
       <path id="DejaVuSans-44b" d="M 3909 3500 
L 4484 3500 
L 4484 0 
L 3909 0 
L 3909 3500 
z
M 4197 3584 
L 4197 3584 
z
M 2781 1038 
Q 2781 1319 2576 1466 
Q 2372 1613 1978 1613 
L 1159 1613 
L 1159 459 
L 1978 459 
Q 2372 459 2576 607 
Q 2781 756 2781 1038 
z
M 581 3500 
L 1159 3500 
L 1159 2072 
L 2003 2072 
Q 2672 2072 3033 1817 
Q 3394 1563 3394 1038 
Q 3394 513 3033 256 
Q 2672 0 2003 0 
L 581 0 
L 581 3500 
z
" transform="scale(0.015625)"/>
       <path id="DejaVuSans-438" d="M 3578 3500 
L 3578 0 
L 3006 0 
L 3006 2809 
L 1319 0 
L 581 0 
L 581 3500 
L 1153 3500 
L 1153 697 
L 2838 3500 
L 3578 3500 
z
" transform="scale(0.015625)"/>
       <path id="DejaVuSans-446" d="M 3603 0 
L 581 0 
L 581 3500 
L 1159 3500 
L 1159 459 
L 3025 459 
L 3025 3500 
L 3603 3500 
L 3603 459 
L 4063 459 
L 4063 -884 
L 3603 -884 
L 3603 0 
z
" transform="scale(0.015625)"/>
      </defs>
      <use xlink:href="#DejaVuSans-420"/>
      <use xlink:href="#DejaVuSans-430" x="60.302734"/>
      <use xlink:href="#DejaVuSans-437" x="121.582031"/>
      <use xlink:href="#DejaVuSans-43c" x="174.755859"/>
      <use xlink:href="#DejaVuSans-435" x="250.195312"/>
      <use xlink:href="#DejaVuSans-440" x="311.71875"/>
      <use xlink:href="#DejaVuSans-20" x="375.195312"/>
      <use xlink:href="#DejaVuSans-441" x="406.982422"/>
      <use xlink:href="#DejaVuSans-442" x="461.962891"/>
      <use xlink:href="#DejaVuSans-43e" x="520.214844"/>
      <use xlink:href="#DejaVuSans-440" x="581.396484"/>
      <use xlink:href="#DejaVuSans-43e" x="644.873047"/>
      <use xlink:href="#DejaVuSans-43d" x="706.054688"/>
      <use xlink:href="#DejaVuSans-44b" x="771.435547"/>
      <use xlink:href="#DejaVuSans-20" x="850.390625"/>
      <use xlink:href="#DejaVuSans-43c" x="882.177734"/>
      <use xlink:href="#DejaVuSans-430" x="957.617188"/>
      <use xlink:href="#DejaVuSans-442" x="1018.896484"/>
      <use xlink:href="#DejaVuSans-440" x="1077.148438"/>
      <use xlink:href="#DejaVuSans-438" x="1140.625"/>
      <use xlink:href="#DejaVuSans-446" x="1205.615234"/>
      <use xlink:href="#DejaVuSans-44b" x="1273.681641"/>
     </g>
    </g>
   </g>
   <g id="matplotlib.axis_2">
    <g id="ytick_1">
     <g id="line2d_7">
      <defs>
       <path id="m56d6eb8cfa" d="M 0 0 
L -3.5 0 
" style="stroke: #000000; stroke-width: 0.8"/>
      </defs>
      <g>
       <use xlink:href="#m56d6eb8cfa" x="57.44" y="290.330133" style="stroke: #000000; stroke-width: 0.8"/>
      </g>
     </g>
     <g id="text_8">
      <!-- 0 -->
      <g transform="translate(44.0775 294.129352) scale(0.1 -0.1)">
       <use xlink:href="#DejaVuSans-30"/>
      </g>
     </g>
    </g>
    <g id="ytick_2">
     <g id="line2d_8">
      <g>
       <use xlink:href="#m56d6eb8cfa" x="57.44" y="252.539719" style="stroke: #000000; stroke-width: 0.8"/>
      </g>
     </g>
     <g id="text_9">
      <!-- 1000 -->
      <g transform="translate(24.99 256.338938) scale(0.1 -0.1)">
       <use xlink:href="#DejaVuSans-31"/>
       <use xlink:href="#DejaVuSans-30" x="63.623047"/>
       <use xlink:href="#DejaVuSans-30" x="127.246094"/>
       <use xlink:href="#DejaVuSans-30" x="190.869141"/>
      </g>
     </g>
    </g>
    <g id="ytick_3">
     <g id="line2d_9">
      <g>
       <use xlink:href="#m56d6eb8cfa" x="57.44" y="214.749306" style="stroke: #000000; stroke-width: 0.8"/>
      </g>
     </g>
     <g id="text_10">
      <!-- 2000 -->
      <g transform="translate(24.99 218.548524) scale(0.1 -0.1)">
       <use xlink:href="#DejaVuSans-32"/>
       <use xlink:href="#DejaVuSans-30" x="63.623047"/>
       <use xlink:href="#DejaVuSans-30" x="127.246094"/>
       <use xlink:href="#DejaVuSans-30" x="190.869141"/>
      </g>
     </g>
    </g>
    <g id="ytick_4">
     <g id="line2d_10">
      <g>
       <use xlink:href="#m56d6eb8cfa" x="57.44" y="176.958892" style="stroke: #000000; stroke-width: 0.8"/>
      </g>
     </g>
     <g id="text_11">
      <!-- 3000 -->
      <g transform="translate(24.99 180.758111) scale(0.1 -0.1)">
       <use xlink:href="#DejaVuSans-33"/>
       <use xlink:href="#DejaVuSans-30" x="63.623047"/>
       <use xlink:href="#DejaVuSans-30" x="127.246094"/>
       <use xlink:href="#DejaVuSans-30" x="190.869141"/>
      </g>
     </g>
    </g>
    <g id="ytick_5">
     <g id="line2d_11">
      <g>
       <use xlink:href="#m56d6eb8cfa" x="57.44" y="139.168478" style="stroke: #000000; stroke-width: 0.8"/>
      </g>
     </g>
     <g id="text_12">
      <!-- 4000 -->
      <g transform="translate(24.99 142.967697) scale(0.1 -0.1)">
       <use xlink:href="#DejaVuSans-34"/>
       <use xlink:href="#DejaVuSans-30" x="63.623047"/>
       <use xlink:href="#DejaVuSans-30" x="127.246094"/>
       <use xlink:href="#DejaVuSans-30" x="190.869141"/>
      </g>
     </g>
    </g>
    <g id="ytick_6">
     <g id="line2d_12">
      <g>
       <use xlink:href="#m56d6eb8cfa" x="57.44" y="101.378065" style="stroke: #000000; stroke-width: 0.8"/>
      </g>
     </g>
     <g id="text_13">
      <!-- 5000 -->
      <g transform="translate(24.99 105.177283) scale(0.1 -0.1)">
       <use xlink:href="#DejaVuSans-35"/>
       <use xlink:href="#DejaVuSans-30" x="63.623047"/>
       <use xlink:href="#DejaVuSans-30" x="127.246094"/>
       <use xlink:href="#DejaVuSans-30" x="190.869141"/>
      </g>
     </g>
    </g>
    <g id="ytick_7">
     <g id="line2d_13">
      <g>
       <use xlink:href="#m56d6eb8cfa" x="57.44" y="63.587651" style="stroke: #000000; stroke-width: 0.8"/>
      </g>
     </g>
     <g id="text_14">
      <!-- 6000 -->
      <g transform="translate(24.99 67.38687) scale(0.1 -0.1)">
       <defs>
        <path id="DejaVuSans-36" d="M 2113 2584 
Q 1688 2584 1439 2293 
Q 1191 2003 1191 1497 
Q 1191 994 1439 701 
Q 1688 409 2113 409 
Q 2538 409 2786 701 
Q 3034 994 3034 1497 
Q 3034 2003 2786 2293 
Q 2538 2584 2113 2584 
z
M 3366 4563 
L 3366 3988 
Q 3128 4100 2886 4159 
Q 2644 4219 2406 4219 
Q 1781 4219 1451 3797 
Q 1122 3375 1075 2522 
Q 1259 2794 1537 2939 
Q 1816 3084 2150 3084 
Q 2853 3084 3261 2657 
Q 3669 2231 3669 1497 
Q 3669 778 3244 343 
Q 2819 -91 2113 -91 
Q 1303 -91 875 529 
Q 447 1150 447 2328 
Q 447 3434 972 4092 
Q 1497 4750 2381 4750 
Q 2619 4750 2861 4703 
Q 3103 4656 3366 4563 
z
" transform="scale(0.015625)"/>
       </defs>
       <use xlink:href="#DejaVuSans-36"/>
       <use xlink:href="#DejaVuSans-30" x="63.623047"/>
       <use xlink:href="#DejaVuSans-30" x="127.246094"/>
       <use xlink:href="#DejaVuSans-30" x="190.869141"/>
      </g>
     </g>
    </g>
    <g id="ytick_8">
     <g id="line2d_14">
      <g>
       <use xlink:href="#m56d6eb8cfa" x="57.44" y="25.797237" style="stroke: #000000; stroke-width: 0.8"/>
      </g>
     </g>
     <g id="text_15">
      <!-- 7000 -->
      <g transform="translate(24.99 29.596456) scale(0.1 -0.1)">
       <defs>
        <path id="DejaVuSans-37" d="M 525 4666 
L 3525 4666 
L 3525 4397 
L 1831 0 
L 1172 0 
L 2766 4134 
L 525 4134 
L 525 4666 
z
" transform="scale(0.015625)"/>
       </defs>
       <use xlink:href="#DejaVuSans-37"/>
       <use xlink:href="#DejaVuSans-30" x="63.623047"/>
       <use xlink:href="#DejaVuSans-30" x="127.246094"/>
       <use xlink:href="#DejaVuSans-30" x="190.869141"/>
      </g>
     </g>
    </g>
    <g id="text_16">
     <!-- Время умножения (мс) -->
     <g transform="translate(18.910312 217.448125) rotate(-90) scale(0.1 -0.1)">
      <defs>
       <path id="DejaVuSans-412" d="M 1259 2228 
L 1259 519 
L 2272 519 
Q 2781 519 3026 730 
Q 3272 941 3272 1375 
Q 3272 1813 3026 2020 
Q 2781 2228 2272 2228 
L 1259 2228 
z
M 1259 4147 
L 1259 2741 
L 2194 2741 
Q 2656 2741 2882 2914 
Q 3109 3088 3109 3444 
Q 3109 3797 2882 3972 
Q 2656 4147 2194 4147 
L 1259 4147 
z
M 628 4666 
L 2241 4666 
Q 2963 4666 3353 4366 
Q 3744 4066 3744 3513 
Q 3744 3084 3544 2831 
Q 3344 2578 2956 2516 
Q 3422 2416 3680 2098 
Q 3938 1781 3938 1306 
Q 3938 681 3513 340 
Q 3088 0 2303 0 
L 628 0 
L 628 4666 
z
" transform="scale(0.015625)"/>
       <path id="DejaVuSans-44f" d="M 1181 2491 
Q 1181 2231 1381 2084 
Q 1581 1938 1953 1938 
L 2728 1938 
L 2728 3041 
L 1953 3041 
Q 1581 3041 1381 2897 
Q 1181 2753 1181 2491 
z
M 363 0 
L 1431 1534 
Q 1069 1616 828 1830 
Q 588 2044 588 2491 
Q 588 2997 923 3248 
Q 1259 3500 1938 3500 
L 3306 3500 
L 3306 0 
L 2728 0 
L 2728 1478 
L 2013 1478 
L 981 0 
L 363 0 
z
" transform="scale(0.015625)"/>
       <path id="DejaVuSans-443" d="M 2059 -325 
Q 1816 -950 1584 -1140 
Q 1353 -1331 966 -1331 
L 506 -1331 
L 506 -850 
L 844 -850 
Q 1081 -850 1212 -737 
Q 1344 -625 1503 -206 
L 1606 56 
L 191 3500 
L 800 3500 
L 1894 763 
L 2988 3500 
L 3597 3500 
L 2059 -325 
z
" transform="scale(0.015625)"/>
       <path id="DejaVuSans-436" d="M 2597 3500 
L 3169 3500 
L 3169 1856 
L 4697 3500 
L 5366 3500 
L 4109 2153 
L 5547 0 
L 4931 0 
L 3753 1769 
L 3169 1141 
L 3169 0 
L 2597 0 
L 2597 1141 
L 2013 1769 
L 834 0 
L 219 0 
L 1656 2153 
L 400 3500 
L 1069 3500 
L 2597 1856 
L 2597 3500 
z
" transform="scale(0.015625)"/>
       <path id="DejaVuSans-28" d="M 1984 4856 
Q 1566 4138 1362 3434 
Q 1159 2731 1159 2009 
Q 1159 1288 1364 580 
Q 1569 -128 1984 -844 
L 1484 -844 
Q 1016 -109 783 600 
Q 550 1309 550 2009 
Q 550 2706 781 3412 
Q 1013 4119 1484 4856 
L 1984 4856 
z
" transform="scale(0.015625)"/>
       <path id="DejaVuSans-29" d="M 513 4856 
L 1013 4856 
Q 1481 4119 1714 3412 
Q 1947 2706 1947 2009 
Q 1947 1309 1714 600 
Q 1481 -109 1013 -844 
L 513 -844 
Q 928 -128 1133 580 
Q 1338 1288 1338 2009 
Q 1338 2731 1133 3434 
Q 928 4138 513 4856 
z
" transform="scale(0.015625)"/>
      </defs>
      <use xlink:href="#DejaVuSans-412"/>
      <use xlink:href="#DejaVuSans-440" x="68.603516"/>
      <use xlink:href="#DejaVuSans-435" x="132.080078"/>
      <use xlink:href="#DejaVuSans-43c" x="193.603516"/>
      <use xlink:href="#DejaVuSans-44f" x="269.042969"/>
      <use xlink:href="#DejaVuSans-20" x="329.199219"/>
      <use xlink:href="#DejaVuSans-443" x="360.986328"/>
      <use xlink:href="#DejaVuSans-43c" x="420.166016"/>
      <use xlink:href="#DejaVuSans-43d" x="495.605469"/>
      <use xlink:href="#DejaVuSans-43e" x="560.986328"/>
      <use xlink:href="#DejaVuSans-436" x="622.167969"/>
      <use xlink:href="#DejaVuSans-435" x="712.255859"/>
      <use xlink:href="#DejaVuSans-43d" x="773.779297"/>
      <use xlink:href="#DejaVuSans-438" x="839.160156"/>
      <use xlink:href="#DejaVuSans-44f" x="904.150391"/>
      <use xlink:href="#DejaVuSans-20" x="964.306641"/>
      <use xlink:href="#DejaVuSans-28" x="996.09375"/>
      <use xlink:href="#DejaVuSans-43c" x="1035.107422"/>
      <use xlink:href="#DejaVuSans-441" x="1110.546875"/>
      <use xlink:href="#DejaVuSans-29" x="1165.527344"/>
     </g>
    </g>
   </g>
   <g id="line2d_15">
    <path d="M 75.283636 290.329091 
L 80.381818 290.320824 
L 85.48 290.303773 
L 90.578182 290.290228 
L 95.676364 290.25645 
L 100.774545 290.19943 
L 105.872727 290.131683 
L 110.970909 290.014649 
L 116.069091 289.889946 
L 121.167273 289.714241 
L 126.265455 289.514422 
L 131.363636 289.25575 
L 136.461818 288.957542 
L 141.56 288.613961 
L 146.658182 288.184682 
L 151.756364 287.707749 
L 156.854545 287.200292 
L 161.952727 286.612979 
L 167.050909 285.939486 
L 172.149091 285.214461 
L 177.247273 282.969028 
L 182.345455 283.38721 
L 187.443636 282.381848 
L 192.541818 281.263494 
L 197.64 280.145873 
L 202.738182 278.879562 
L 207.836364 277.534004 
L 212.934545 275.923826 
L 218.032727 274.482035 
L 223.130909 272.724176 
L 228.229091 270.442337 
L 233.327273 268.424008 
L 238.425455 266.639204 
L 243.523636 264.27477 
L 248.621818 261.789858 
L 253.72 258.955981 
L 258.818182 256.666053 
L 263.916364 252.977831 
L 269.014545 250.739796 
L 274.112727 247.014326 
L 279.210909 243.580827 
L 284.309091 240.002278 
L 289.407273 236.044511 
L 294.505455 232.187594 
L 299.603636 227.870687 
L 304.701818 223.136437 
L 309.8 219.125896 
L 314.898182 214.371817 
L 319.996364 208.172808 
L 325.094545 203.037866 
L 330.192727 196.911026 
L 335.290909 190.868503 
L 340.389091 184.987345 
L 345.487273 179.383372 
L 350.585455 172.259967 
L 355.683636 166.413589 
L 360.781818 158.037838 
L 365.88 149.544822 
L 370.978182 141.699962 
L 376.076364 133.184381 
L 381.174545 125.966693 
L 386.272727 116.033316 
L 391.370909 108.565004 
L 396.469091 98.898628 
L 401.567273 89.136786 
L 406.665455 77.541375 
L 411.763636 67.529418 
L 416.861818 57.708202 
L 421.96 45.285556 
L 427.058182 36.222459 
L 432.156364 24.110909 
" clip-path="url(#pa702b7fbce)" style="fill: none; stroke: #1f77b4; stroke-width: 1.5; stroke-linecap: square"/>
   </g>
   <g id="line2d_16">
    <path d="M 75.283636 290.328886 
L 80.381818 290.322835 
L 85.48 290.313192 
L 90.578182 290.295001 
L 95.676364 290.264664 
L 100.774545 290.21851 
L 105.872727 290.155766 
L 110.970909 290.054125 
L 116.069091 289.936579 
L 121.167273 289.796187 
L 126.265455 289.617869 
L 131.363636 289.403537 
L 136.461818 289.138369 
L 141.56 288.836573 
L 146.658182 288.505652 
L 151.756364 288.104279 
L 156.854545 287.621897 
L 161.952727 287.19185 
L 167.050909 286.613558 
L 172.149091 285.866546 
L 177.247273 285.161814 
L 182.345455 284.432848 
L 187.443636 283.496848 
L 192.541818 282.698821 
L 197.64 281.62536 
L 202.738182 280.629339 
L 207.836364 279.483848 
L 212.934545 277.997497 
L 218.032727 276.532027 
L 223.130909 275.099823 
L 228.229091 273.335518 
L 233.327273 271.781958 
L 238.425455 269.988198 
L 243.523636 268.089376 
L 248.621818 265.854517 
L 253.72 263.806849 
L 258.818182 261.280267 
L 263.916364 258.495031 
L 269.014545 255.741841 
L 274.112727 252.757656 
L 279.210909 249.373198 
L 284.309091 245.986044 
L 289.407273 242.357772 
L 294.505455 238.347752 
L 299.603636 234.274544 
L 304.701818 230.545585 
L 309.8 226.954459 
L 314.898182 222.398402 
L 319.996364 215.803344 
L 325.094545 211.56956 
L 330.192727 205.5665 
L 335.290909 199.021122 
L 340.389091 190.679897 
L 345.487273 188.397157 
L 350.585455 181.286466 
L 355.683636 172.818647 
L 360.781818 167.504165 
L 365.88 161.036049 
L 370.978182 152.362795 
L 376.076364 144.63562 
L 381.174545 135.309697 
L 386.272727 128.317803 
L 391.370909 118.355493 
L 396.469091 112.882069 
L 401.567273 102.145718 
L 406.665455 93.875454 
L 411.763636 79.039539 
L 416.861818 69.728325 
L 421.96 61.885565 
L 427.058182 52.926158 
L 432.156364 38.727096 
" clip-path="url(#pa702b7fbce)" style="fill: none; stroke-dasharray: 5.55,2.4; stroke-dashoffset: 0; stroke: #008000; stroke-width: 1.5"/>
   </g>
   <g id="line2d_17">
    <path d="M 75.283636 290.327741 
L 80.381818 290.323631 
L 85.48 290.317934 
L 90.578182 290.291805 
L 95.676364 290.272251 
L 100.774545 290.235395 
L 105.872727 290.174811 
L 110.970909 290.093202 
L 116.069091 289.989824 
L 121.167273 289.877407 
L 126.265455 289.698656 
L 131.363636 289.538167 
L 136.461818 289.301039 
L 141.56 289.010098 
L 146.658182 288.763515 
L 151.756364 288.428816 
L 156.854545 287.953844 
L 161.952727 287.614571 
L 167.050909 287.071241 
L 172.149091 286.514931 
L 177.247273 285.836647 
L 182.345455 285.296632 
L 187.443636 284.381559 
L 192.541818 283.682732 
L 197.64 282.871003 
L 202.738182 281.897346 
L 207.836364 281.010968 
L 212.934545 279.782377 
L 218.032727 278.33689 
L 223.130909 277.387655 
L 228.229091 275.046622 
L 233.327273 274.080156 
L 238.425455 272.897459 
L 243.523636 271.267494 
L 248.621818 269.215055 
L 253.72 267.384558 
L 258.818182 265.118347 
L 263.916364 262.857424 
L 269.014545 260.497448 
L 274.112727 258.30873 
L 279.210909 255.145587 
L 284.309091 252.65254 
L 289.407273 249.599939 
L 294.505455 246.14841 
L 299.603636 242.947447 
L 304.701818 240.322456 
L 309.8 236.269904 
L 314.898182 232.808052 
L 319.996364 227.943112 
L 325.094545 223.797829 
L 330.192727 219.151614 
L 335.290909 214.883741 
L 340.389091 208.673336 
L 345.487273 204.886116 
L 350.585455 201.674756 
L 355.683636 193.136622 
L 360.781818 188.983355 
L 365.88 181.873515 
L 370.978182 175.697999 
L 376.076364 170.345434 
L 381.174545 163.264782 
L 386.272727 155.376815 
L 391.370909 149.794485 
L 396.469091 143.985513 
L 401.567273 135.331204 
L 406.665455 128.938188 
L 411.763636 118.419979 
L 416.861818 110.214817 
L 421.96 103.630323 
L 427.058182 95.24157 
L 432.156364 85.540073 
" clip-path="url(#pa702b7fbce)" style="fill: none; stroke: #ff0000; stroke-width: 1.5; stroke-linecap: square"/>
    <defs>
     <path id="me33d223ebc" d="M -3 0 
L 3 0 
M 0 3 
L 0 -3 
" style="stroke: #ff0000"/>
    </defs>
    <g clip-path="url(#pa702b7fbce)">
     <use xlink:href="#me33d223ebc" x="75.283636" y="290.327741" style="fill: #ff0000; stroke: #ff0000"/>
     <use xlink:href="#me33d223ebc" x="80.381818" y="290.323631" style="fill: #ff0000; stroke: #ff0000"/>
     <use xlink:href="#me33d223ebc" x="85.48" y="290.317934" style="fill: #ff0000; stroke: #ff0000"/>
     <use xlink:href="#me33d223ebc" x="90.578182" y="290.291805" style="fill: #ff0000; stroke: #ff0000"/>
     <use xlink:href="#me33d223ebc" x="95.676364" y="290.272251" style="fill: #ff0000; stroke: #ff0000"/>
     <use xlink:href="#me33d223ebc" x="100.774545" y="290.235395" style="fill: #ff0000; stroke: #ff0000"/>
     <use xlink:href="#me33d223ebc" x="105.872727" y="290.174811" style="fill: #ff0000; stroke: #ff0000"/>
     <use xlink:href="#me33d223ebc" x="110.970909" y="290.093202" style="fill: #ff0000; stroke: #ff0000"/>
     <use xlink:href="#me33d223ebc" x="116.069091" y="289.989824" style="fill: #ff0000; stroke: #ff0000"/>
     <use xlink:href="#me33d223ebc" x="121.167273" y="289.877407" style="fill: #ff0000; stroke: #ff0000"/>
     <use xlink:href="#me33d223ebc" x="126.265455" y="289.698656" style="fill: #ff0000; stroke: #ff0000"/>
     <use xlink:href="#me33d223ebc" x="131.363636" y="289.538167" style="fill: #ff0000; stroke: #ff0000"/>
     <use xlink:href="#me33d223ebc" x="136.461818" y="289.301039" style="fill: #ff0000; stroke: #ff0000"/>
     <use xlink:href="#me33d223ebc" x="141.56" y="289.010098" style="fill: #ff0000; stroke: #ff0000"/>
     <use xlink:href="#me33d223ebc" x="146.658182" y="288.763515" style="fill: #ff0000; stroke: #ff0000"/>
     <use xlink:href="#me33d223ebc" x="151.756364" y="288.428816" style="fill: #ff0000; stroke: #ff0000"/>
     <use xlink:href="#me33d223ebc" x="156.854545" y="287.953844" style="fill: #ff0000; stroke: #ff0000"/>
     <use xlink:href="#me33d223ebc" x="161.952727" y="287.614571" style="fill: #ff0000; stroke: #ff0000"/>
     <use xlink:href="#me33d223ebc" x="167.050909" y="287.071241" style="fill: #ff0000; stroke: #ff0000"/>
     <use xlink:href="#me33d223ebc" x="172.149091" y="286.514931" style="fill: #ff0000; stroke: #ff0000"/>
     <use xlink:href="#me33d223ebc" x="177.247273" y="285.836647" style="fill: #ff0000; stroke: #ff0000"/>
     <use xlink:href="#me33d223ebc" x="182.345455" y="285.296632" style="fill: #ff0000; stroke: #ff0000"/>
     <use xlink:href="#me33d223ebc" x="187.443636" y="284.381559" style="fill: #ff0000; stroke: #ff0000"/>
     <use xlink:href="#me33d223ebc" x="192.541818" y="283.682732" style="fill: #ff0000; stroke: #ff0000"/>
     <use xlink:href="#me33d223ebc" x="197.64" y="282.871003" style="fill: #ff0000; stroke: #ff0000"/>
     <use xlink:href="#me33d223ebc" x="202.738182" y="281.897346" style="fill: #ff0000; stroke: #ff0000"/>
     <use xlink:href="#me33d223ebc" x="207.836364" y="281.010968" style="fill: #ff0000; stroke: #ff0000"/>
     <use xlink:href="#me33d223ebc" x="212.934545" y="279.782377" style="fill: #ff0000; stroke: #ff0000"/>
     <use xlink:href="#me33d223ebc" x="218.032727" y="278.33689" style="fill: #ff0000; stroke: #ff0000"/>
     <use xlink:href="#me33d223ebc" x="223.130909" y="277.387655" style="fill: #ff0000; stroke: #ff0000"/>
     <use xlink:href="#me33d223ebc" x="228.229091" y="275.046622" style="fill: #ff0000; stroke: #ff0000"/>
     <use xlink:href="#me33d223ebc" x="233.327273" y="274.080156" style="fill: #ff0000; stroke: #ff0000"/>
     <use xlink:href="#me33d223ebc" x="238.425455" y="272.897459" style="fill: #ff0000; stroke: #ff0000"/>
     <use xlink:href="#me33d223ebc" x="243.523636" y="271.267494" style="fill: #ff0000; stroke: #ff0000"/>
     <use xlink:href="#me33d223ebc" x="248.621818" y="269.215055" style="fill: #ff0000; stroke: #ff0000"/>
     <use xlink:href="#me33d223ebc" x="253.72" y="267.384558" style="fill: #ff0000; stroke: #ff0000"/>
     <use xlink:href="#me33d223ebc" x="258.818182" y="265.118347" style="fill: #ff0000; stroke: #ff0000"/>
     <use xlink:href="#me33d223ebc" x="263.916364" y="262.857424" style="fill: #ff0000; stroke: #ff0000"/>
     <use xlink:href="#me33d223ebc" x="269.014545" y="260.497448" style="fill: #ff0000; stroke: #ff0000"/>
     <use xlink:href="#me33d223ebc" x="274.112727" y="258.30873" style="fill: #ff0000; stroke: #ff0000"/>
     <use xlink:href="#me33d223ebc" x="279.210909" y="255.145587" style="fill: #ff0000; stroke: #ff0000"/>
     <use xlink:href="#me33d223ebc" x="284.309091" y="252.65254" style="fill: #ff0000; stroke: #ff0000"/>
     <use xlink:href="#me33d223ebc" x="289.407273" y="249.599939" style="fill: #ff0000; stroke: #ff0000"/>
     <use xlink:href="#me33d223ebc" x="294.505455" y="246.14841" style="fill: #ff0000; stroke: #ff0000"/>
     <use xlink:href="#me33d223ebc" x="299.603636" y="242.947447" style="fill: #ff0000; stroke: #ff0000"/>
     <use xlink:href="#me33d223ebc" x="304.701818" y="240.322456" style="fill: #ff0000; stroke: #ff0000"/>
     <use xlink:href="#me33d223ebc" x="309.8" y="236.269904" style="fill: #ff0000; stroke: #ff0000"/>
     <use xlink:href="#me33d223ebc" x="314.898182" y="232.808052" style="fill: #ff0000; stroke: #ff0000"/>
     <use xlink:href="#me33d223ebc" x="319.996364" y="227.943112" style="fill: #ff0000; stroke: #ff0000"/>
     <use xlink:href="#me33d223ebc" x="325.094545" y="223.797829" style="fill: #ff0000; stroke: #ff0000"/>
     <use xlink:href="#me33d223ebc" x="330.192727" y="219.151614" style="fill: #ff0000; stroke: #ff0000"/>
     <use xlink:href="#me33d223ebc" x="335.290909" y="214.883741" style="fill: #ff0000; stroke: #ff0000"/>
     <use xlink:href="#me33d223ebc" x="340.389091" y="208.673336" style="fill: #ff0000; stroke: #ff0000"/>
     <use xlink:href="#me33d223ebc" x="345.487273" y="204.886116" style="fill: #ff0000; stroke: #ff0000"/>
     <use xlink:href="#me33d223ebc" x="350.585455" y="201.674756" style="fill: #ff0000; stroke: #ff0000"/>
     <use xlink:href="#me33d223ebc" x="355.683636" y="193.136622" style="fill: #ff0000; stroke: #ff0000"/>
     <use xlink:href="#me33d223ebc" x="360.781818" y="188.983355" style="fill: #ff0000; stroke: #ff0000"/>
     <use xlink:href="#me33d223ebc" x="365.88" y="181.873515" style="fill: #ff0000; stroke: #ff0000"/>
     <use xlink:href="#me33d223ebc" x="370.978182" y="175.697999" style="fill: #ff0000; stroke: #ff0000"/>
     <use xlink:href="#me33d223ebc" x="376.076364" y="170.345434" style="fill: #ff0000; stroke: #ff0000"/>
     <use xlink:href="#me33d223ebc" x="381.174545" y="163.264782" style="fill: #ff0000; stroke: #ff0000"/>
     <use xlink:href="#me33d223ebc" x="386.272727" y="155.376815" style="fill: #ff0000; stroke: #ff0000"/>
     <use xlink:href="#me33d223ebc" x="391.370909" y="149.794485" style="fill: #ff0000; stroke: #ff0000"/>
     <use xlink:href="#me33d223ebc" x="396.469091" y="143.985513" style="fill: #ff0000; stroke: #ff0000"/>
     <use xlink:href="#me33d223ebc" x="401.567273" y="135.331204" style="fill: #ff0000; stroke: #ff0000"/>
     <use xlink:href="#me33d223ebc" x="406.665455" y="128.938188" style="fill: #ff0000; stroke: #ff0000"/>
     <use xlink:href="#me33d223ebc" x="411.763636" y="118.419979" style="fill: #ff0000; stroke: #ff0000"/>
     <use xlink:href="#me33d223ebc" x="416.861818" y="110.214817" style="fill: #ff0000; stroke: #ff0000"/>
     <use xlink:href="#me33d223ebc" x="421.96" y="103.630323" style="fill: #ff0000; stroke: #ff0000"/>
     <use xlink:href="#me33d223ebc" x="427.058182" y="95.24157" style="fill: #ff0000; stroke: #ff0000"/>
     <use xlink:href="#me33d223ebc" x="432.156364" y="85.540073" style="fill: #ff0000; stroke: #ff0000"/>
    </g>
   </g>
   <g id="patch_3">
    <path d="M 57.44 303.64 
L 57.44 10.8 
" style="fill: none; stroke: #000000; stroke-width: 0.8; stroke-linejoin: miter; stroke-linecap: square"/>
   </g>
   <g id="patch_4">
    <path d="M 450 303.64 
L 450 10.8 
" style="fill: none; stroke: #000000; stroke-width: 0.8; stroke-linejoin: miter; stroke-linecap: square"/>
   </g>
   <g id="patch_5">
    <path d="M 57.44 303.64 
L 450 303.64 
" style="fill: none; stroke: #000000; stroke-width: 0.8; stroke-linejoin: miter; stroke-linecap: square"/>
   </g>
   <g id="patch_6">
    <path d="M 57.44 10.8 
L 450 10.8 
" style="fill: none; stroke: #000000; stroke-width: 0.8; stroke-linejoin: miter; stroke-linecap: square"/>
   </g>
   <g id="legend_1">
    <g id="patch_7">
     <path d="M 64.44 62.834375 
L 351.369687 62.834375 
Q 353.369687 62.834375 353.369687 60.834375 
L 353.369687 17.8 
Q 353.369687 15.8 351.369687 15.8 
L 64.44 15.8 
Q 62.44 15.8 62.44 17.8 
L 62.44 60.834375 
Q 62.44 62.834375 64.44 62.834375 
z
" style="fill: #ffffff; opacity: 0.8; stroke: #cccccc; stroke-linejoin: miter"/>
    </g>
    <g id="line2d_18">
     <path d="M 66.44 23.898438 
L 76.44 23.898438 
L 86.44 23.898438 
" style="fill: none; stroke: #1f77b4; stroke-width: 1.5; stroke-linecap: square"/>
    </g>
    <g id="text_17">
     <!-- время умножения простым алгоритмом -->
     <g transform="translate(94.44 27.398438) scale(0.1 -0.1)">
      <defs>
       <path id="DejaVuSans-432" d="M 1156 1613 
L 1156 459 
L 1975 459 
Q 2369 459 2575 607 
Q 2781 756 2781 1038 
Q 2781 1319 2575 1466 
Q 2369 1613 1975 1613 
L 1156 1613 
z
M 1156 3041 
L 1156 2072 
L 1913 2072 
Q 2238 2072 2444 2201 
Q 2650 2331 2650 2563 
Q 2650 2794 2444 2917 
Q 2238 3041 1913 3041 
L 1156 3041 
z
M 581 3500 
L 1950 3500 
Q 2566 3500 2897 3275 
Q 3228 3050 3228 2634 
Q 3228 2313 3059 2123 
Q 2891 1934 2559 1888 
Q 2956 1813 3175 1575 
Q 3394 1338 3394 981 
Q 3394 513 3033 256 
Q 2672 0 2003 0 
L 581 0 
L 581 3500 
z
" transform="scale(0.015625)"/>
       <path id="DejaVuSans-43f" d="M 3603 3500 
L 3603 0 
L 3025 0 
L 3025 3041 
L 1159 3041 
L 1159 0 
L 581 0 
L 581 3500 
L 3603 3500 
z
" transform="scale(0.015625)"/>
       <path id="DejaVuSans-43b" d="M 238 0 
L 238 478 
Q 806 566 981 959 
Q 1194 1513 1194 2928 
L 1194 3500 
L 3559 3500 
L 3559 0 
L 2984 0 
L 2984 3041 
L 1769 3041 
L 1769 2694 
Q 1769 1344 1494 738 
Q 1200 91 238 0 
z
" transform="scale(0.015625)"/>
       <path id="DejaVuSans-433" d="M 581 0 
L 581 3500 
L 3050 3500 
L 3050 3041 
L 1159 3041 
L 1159 0 
L 581 0 
z
" transform="scale(0.015625)"/>
      </defs>
      <use xlink:href="#DejaVuSans-432"/>
      <use xlink:href="#DejaVuSans-440" x="58.935547"/>
      <use xlink:href="#DejaVuSans-435" x="122.412109"/>
      <use xlink:href="#DejaVuSans-43c" x="183.935547"/>
      <use xlink:href="#DejaVuSans-44f" x="259.375"/>
      <use xlink:href="#DejaVuSans-20" x="319.53125"/>
      <use xlink:href="#DejaVuSans-443" x="351.318359"/>
      <use xlink:href="#DejaVuSans-43c" x="410.498047"/>
      <use xlink:href="#DejaVuSans-43d" x="485.9375"/>
      <use xlink:href="#DejaVuSans-43e" x="551.318359"/>
      <use xlink:href="#DejaVuSans-436" x="612.5"/>
      <use xlink:href="#DejaVuSans-435" x="702.587891"/>
      <use xlink:href="#DejaVuSans-43d" x="764.111328"/>
      <use xlink:href="#DejaVuSans-438" x="829.492188"/>
      <use xlink:href="#DejaVuSans-44f" x="894.482422"/>
      <use xlink:href="#DejaVuSans-20" x="954.638672"/>
      <use xlink:href="#DejaVuSans-43f" x="986.425781"/>
      <use xlink:href="#DejaVuSans-440" x="1051.806641"/>
      <use xlink:href="#DejaVuSans-43e" x="1115.283203"/>
      <use xlink:href="#DejaVuSans-441" x="1176.464844"/>
      <use xlink:href="#DejaVuSans-442" x="1231.445312"/>
      <use xlink:href="#DejaVuSans-44b" x="1289.697266"/>
      <use xlink:href="#DejaVuSans-43c" x="1368.652344"/>
      <use xlink:href="#DejaVuSans-20" x="1444.091797"/>
      <use xlink:href="#DejaVuSans-430" x="1475.878906"/>
      <use xlink:href="#DejaVuSans-43b" x="1537.158203"/>
      <use xlink:href="#DejaVuSans-433" x="1601.074219"/>
      <use xlink:href="#DejaVuSans-43e" x="1653.613281"/>
      <use xlink:href="#DejaVuSans-440" x="1714.794922"/>
      <use xlink:href="#DejaVuSans-438" x="1778.271484"/>
      <use xlink:href="#DejaVuSans-442" x="1843.261719"/>
      <use xlink:href="#DejaVuSans-43c" x="1901.513672"/>
      <use xlink:href="#DejaVuSans-43e" x="1976.953125"/>
      <use xlink:href="#DejaVuSans-43c" x="2038.134766"/>
     </g>
    </g>
    <g id="line2d_19">
     <path d="M 66.44 38.576563 
L 76.44 38.576563 
L 86.44 38.576563 
" style="fill: none; stroke-dasharray: 5.55,2.4; stroke-dashoffset: 0; stroke: #008000; stroke-width: 1.5"/>
    </g>
    <g id="text_18">
     <!-- время умножения алгоритмом винограда -->
     <g transform="translate(94.44 42.076563) scale(0.1 -0.1)">
      <defs>
       <path id="DejaVuSans-434" d="M 1384 459 
L 3053 459 
L 3053 3041 
L 1844 3041 
L 1844 2603 
Q 1844 1316 1475 628 
L 1384 459 
z
M 550 459 
Q 834 584 959 850 
Q 1266 1509 1266 2838 
L 1266 3500 
L 3631 3500 
L 3631 459 
L 4091 459 
L 4091 -884 
L 3631 -884 
L 3631 0 
L 794 0 
L 794 -884 
L 334 -884 
L 334 459 
L 550 459 
z
" transform="scale(0.015625)"/>
      </defs>
      <use xlink:href="#DejaVuSans-432"/>
      <use xlink:href="#DejaVuSans-440" x="58.935547"/>
      <use xlink:href="#DejaVuSans-435" x="122.412109"/>
      <use xlink:href="#DejaVuSans-43c" x="183.935547"/>
      <use xlink:href="#DejaVuSans-44f" x="259.375"/>
      <use xlink:href="#DejaVuSans-20" x="319.53125"/>
      <use xlink:href="#DejaVuSans-443" x="351.318359"/>
      <use xlink:href="#DejaVuSans-43c" x="410.498047"/>
      <use xlink:href="#DejaVuSans-43d" x="485.9375"/>
      <use xlink:href="#DejaVuSans-43e" x="551.318359"/>
      <use xlink:href="#DejaVuSans-436" x="612.5"/>
      <use xlink:href="#DejaVuSans-435" x="702.587891"/>
      <use xlink:href="#DejaVuSans-43d" x="764.111328"/>
      <use xlink:href="#DejaVuSans-438" x="829.492188"/>
      <use xlink:href="#DejaVuSans-44f" x="894.482422"/>
      <use xlink:href="#DejaVuSans-20" x="954.638672"/>
      <use xlink:href="#DejaVuSans-430" x="986.425781"/>
      <use xlink:href="#DejaVuSans-43b" x="1047.705078"/>
      <use xlink:href="#DejaVuSans-433" x="1111.621094"/>
      <use xlink:href="#DejaVuSans-43e" x="1164.160156"/>
      <use xlink:href="#DejaVuSans-440" x="1225.341797"/>
      <use xlink:href="#DejaVuSans-438" x="1288.818359"/>
      <use xlink:href="#DejaVuSans-442" x="1353.808594"/>
      <use xlink:href="#DejaVuSans-43c" x="1412.060547"/>
      <use xlink:href="#DejaVuSans-43e" x="1487.5"/>
      <use xlink:href="#DejaVuSans-43c" x="1548.681641"/>
      <use xlink:href="#DejaVuSans-20" x="1624.121094"/>
      <use xlink:href="#DejaVuSans-432" x="1655.908203"/>
      <use xlink:href="#DejaVuSans-438" x="1714.84375"/>
      <use xlink:href="#DejaVuSans-43d" x="1779.833984"/>
      <use xlink:href="#DejaVuSans-43e" x="1845.214844"/>
      <use xlink:href="#DejaVuSans-433" x="1906.396484"/>
      <use xlink:href="#DejaVuSans-440" x="1958.935547"/>
      <use xlink:href="#DejaVuSans-430" x="2022.412109"/>
      <use xlink:href="#DejaVuSans-434" x="2083.691406"/>
      <use xlink:href="#DejaVuSans-430" x="2152.832031"/>
     </g>
    </g>
    <g id="line2d_20">
     <path d="M 66.44 53.254688 
L 76.44 53.254688 
L 86.44 53.254688 
" style="fill: none; stroke: #ff0000; stroke-width: 1.5; stroke-linecap: square"/>
     <g>
      <use xlink:href="#me33d223ebc" x="76.44" y="53.254688" style="fill: #ff0000; stroke: #ff0000"/>
     </g>
    </g>
    <g id="text_19">
     <!-- время умножения алгоритмом винограда с опт. -->
     <g transform="translate(94.44 56.754688) scale(0.1 -0.1)">
      <defs>
       <path id="DejaVuSans-2e" d="M 684 794 
L 1344 794 
L 1344 0 
L 684 0 
L 684 794 
z
" transform="scale(0.015625)"/>
      </defs>
      <use xlink:href="#DejaVuSans-432"/>
      <use xlink:href="#DejaVuSans-440" x="58.935547"/>
      <use xlink:href="#DejaVuSans-435" x="122.412109"/>
      <use xlink:href="#DejaVuSans-43c" x="183.935547"/>
      <use xlink:href="#DejaVuSans-44f" x="259.375"/>
      <use xlink:href="#DejaVuSans-20" x="319.53125"/>
      <use xlink:href="#DejaVuSans-443" x="351.318359"/>
      <use xlink:href="#DejaVuSans-43c" x="410.498047"/>
      <use xlink:href="#DejaVuSans-43d" x="485.9375"/>
      <use xlink:href="#DejaVuSans-43e" x="551.318359"/>
      <use xlink:href="#DejaVuSans-436" x="612.5"/>
      <use xlink:href="#DejaVuSans-435" x="702.587891"/>
      <use xlink:href="#DejaVuSans-43d" x="764.111328"/>
      <use xlink:href="#DejaVuSans-438" x="829.492188"/>
      <use xlink:href="#DejaVuSans-44f" x="894.482422"/>
      <use xlink:href="#DejaVuSans-20" x="954.638672"/>
      <use xlink:href="#DejaVuSans-430" x="986.425781"/>
      <use xlink:href="#DejaVuSans-43b" x="1047.705078"/>
      <use xlink:href="#DejaVuSans-433" x="1111.621094"/>
      <use xlink:href="#DejaVuSans-43e" x="1164.160156"/>
      <use xlink:href="#DejaVuSans-440" x="1225.341797"/>
      <use xlink:href="#DejaVuSans-438" x="1288.818359"/>
      <use xlink:href="#DejaVuSans-442" x="1353.808594"/>
      <use xlink:href="#DejaVuSans-43c" x="1412.060547"/>
      <use xlink:href="#DejaVuSans-43e" x="1487.5"/>
      <use xlink:href="#DejaVuSans-43c" x="1548.681641"/>
      <use xlink:href="#DejaVuSans-20" x="1624.121094"/>
      <use xlink:href="#DejaVuSans-432" x="1655.908203"/>
      <use xlink:href="#DejaVuSans-438" x="1714.84375"/>
      <use xlink:href="#DejaVuSans-43d" x="1779.833984"/>
      <use xlink:href="#DejaVuSans-43e" x="1845.214844"/>
      <use xlink:href="#DejaVuSans-433" x="1906.396484"/>
      <use xlink:href="#DejaVuSans-440" x="1958.935547"/>
      <use xlink:href="#DejaVuSans-430" x="2022.412109"/>
      <use xlink:href="#DejaVuSans-434" x="2083.691406"/>
      <use xlink:href="#DejaVuSans-430" x="2152.832031"/>
      <use xlink:href="#DejaVuSans-20" x="2214.111328"/>
      <use xlink:href="#DejaVuSans-441" x="2245.898438"/>
      <use xlink:href="#DejaVuSans-20" x="2300.878906"/>
      <use xlink:href="#DejaVuSans-43e" x="2332.666016"/>
      <use xlink:href="#DejaVuSans-43f" x="2393.847656"/>
      <use xlink:href="#DejaVuSans-442" x="2459.228516"/>
      <use xlink:href="#DejaVuSans-2e" x="2517.480469"/>
     </g>
    </g>
   </g>
  </g>
 </g>
 <defs>
  <clipPath id="pa702b7fbce">
   <rect x="57.44" y="10.8" width="392.56" height="292.84"/>
  </clipPath>
 </defs>
</svg>
